# xmcd CD database file
#
# Track frame offsets:
#	150
#	22694
#	43931
#	61384
#	85099
#	119164
#	137711
#	162232
#	177877
#	196169
#	213467
#	234147
#	254967
#	273217
#	304728
#	317699
#
# Disc length: 4508 seconds
#
# Revision: 0
# Processed by: cddbd v1.5.2PL0 Copyright (c) Steve Scherf et al.
# Submitted via: CDex 1.70beta2
#
DISCID=df119a10
DTITLE=Oscar peterson - The Modern Jazz Quartet and the Osacr peterson trio at the opera House (1957) and Swinging brass with Oscar peterson trio and Russell Garcia orchestra (1959)
DYEAR=1957
DGENRE=Jazz
TTITLE0=D and E blues
TTITLE1=Now's the time
TTITLE2=Round about midnight
TTITLE3=Should I ?
TTITLE4=Big fat mama
TTITLE5=Indiana
TTITLE6=Joy spring
TTITLE7=Elevation
TTITLE8=Stockholm sweetnin'
TTITLE9=Blues for Big Scotia
TTITLE10=Close your eyes
TTITLE11=Spirit feel
TTITLE12=Cubano chant
TTITLE13=Con alma
TTITLE14=O.P.
TTITLE15=Littel pea's blues
EXTD=YEAR: 1957
EXTT0=
EXTT1=
EXTT2=
EXTT3=
EXTT4=
EXTT5=
EXTT6=
EXTT7=
EXTT8=
EXTT9=
EXTT10=
EXTT11=
EXTT12=
EXTT13=
EXTT14=
EXTT15=
PLAYORDER=
